<?xml version="1.0" encoding="UTF-8"?>
<!DOCTYPE svg PUBLIC "-//W3C//DTD SVG 1.1//EN" "http://www.w3.org/Graphics/SVG/1.1/DTD/svg11.dtd">
<svg version="1.1" xmlns="http://www.w3.org/2000/svg" xmlns:xlink="http://www.w3.org/1999/xlink" x="0px" y="0px" width="128" height="128" viewBox="0, 0, 128, 128">
  <g id="Background">
    <rect x="0" y="0" width="128" height="128" fill="#000000" fill-opacity="0"/>
  </g>
  <g id="Background">
    <path d="M18.095,6 L109.907,6 C116.561,6 122,11.439 122,18.093 L122,109.905 C122,116.559 116.561,122 109.907,122 L18.095,122 C11.441,122 6,116.559 6,109.905 L6,18.093 C6,11.439 11.441,6 18.095,6" fill="#727272"/>
    <path d="M6,76.646 L6,35.835 C9.718,37.178 13.455,38.433 17.167,39.75 C22.072,41.498 24.968,40.698 29.095,38.142 C36.928,33.342 51.944,24.309 59.882,33.648 C55.128,36.78 45.724,40.718 42.176,44.539 C33.932,52.851 42.042,68.84 56.081,62.798 C59.768,61.118 63.447,59.437 67.111,57.733 C68.585,57.043 70.22,56.582 71.856,56.884 C73.651,57.135 75.241,58.126 76.483,59.415 C83.204,66.21 89.978,72.932 96.723,79.7 C98.083,80.992 99.691,82.349 99.925,84.331 C100.408,86.952 98.495,89.697 95.897,90.177 C94.12,90.57 92.256,89.903 91.013,88.637 C89.079,86.725 87.192,84.793 85.233,82.902 C84.451,82.144 83.712,81.313 82.771,80.738 C82.059,80.203 81.323,80.988 82.4,82.281 C84.105,84.4 86.087,86.262 87.973,88.223 C89.054,89.304 90.229,90.364 90.804,91.813 C91.59,93.68 91.105,95.935 89.676,97.337 C88.228,98.905 85.716,99.32 83.807,98.397 C82.4,97.73 81.41,96.465 80.327,95.405 C78.208,93.309 76.14,91.146 73.974,89.099 C71.157,86.344 70.979,88.308 73.583,90.872 C75.423,93.013 77.519,94.922 79.455,96.973 C80.491,98.009 81.181,99.435 81.091,100.909 C81.113,103.604 78.669,105.997 75.975,105.952 C74.34,105.997 72.847,105.125 71.788,103.923 C69.668,101.621 67.39,99.435 65.202,97.178 C64.485,96.511 63.818,95.776 62.941,95.293 C62.155,94.79 61.923,96.013 62.713,96.904 C64.741,99.251 66.997,101.394 69.138,103.604 C71.002,105.467 71.024,108.805 69.162,110.674 C67.48,112.559 64.348,112.86 62.342,111.317 C61.448,110.605 60.731,109.706 59.905,108.924 C59.534,108.509 58.981,108.093 59.051,107.448 C59.101,106.206 59.238,104.914 58.959,103.672 C58.406,100.289 56.218,97.224 53.228,95.589 C52.464,95.151 51.615,94.945 50.903,94.437 C50.465,93.68 50.301,92.779 49.888,91.999 C48.715,89.625 46.687,87.646 44.222,86.633 C43.6,86.377 42.933,86.058 42.751,85.346 C41.85,82.697 39.965,80.367 37.454,79.103 C36.787,78.759 36.075,78.55 35.47,78.112 C34.965,77.308 34.758,76.385 34.298,75.581 C33.1,73.393 31.119,71.645 28.817,70.699 C23.753,68.648 17.4,70.077 13.873,74.266 C12.768,75.513 12.079,77.007 11.389,78.503 C9.562,77.975 7.819,77.193 6,76.646" fill="#84D0F4"/>
    <path d="M98.682,41.823 C100.477,43.457 103.126,43.919 105.451,43.366 C110.957,42.105 116.506,41.05 122,39.69 L122,75.357 C118.923,76.024 115.789,76.489 112.68,77.074 C110.629,77.467 108.441,77.654 106.441,76.915 C104.669,76.317 103.33,74.96 102.066,73.668 C95.043,66.721 87.996,59.806 80.971,52.851 C80.122,52.025 79.336,51.103 78.395,50.367 C76.715,49.005 74.385,48.595 72.317,49.125 C66.568,50.504 55.411,59.089 50.881,59.209 C47.77,59.437 44.705,57.204 43.971,54.167 C43.212,51.517 44.34,48.477 46.619,46.937 C47.655,46.242 48.807,45.759 49.866,45.092 C57.42,40.579 65.105,36.342 72.824,32.108 C85.347,25.395 88.785,33.2 98.682,41.823" fill="#EBECEC"/>
    <path d="M22.351,75.371 C24.328,74.891 26.538,75.371 28.104,76.686 C29.21,77.535 29.899,78.851 30.086,80.208 C30.247,81.266 30.086,82.304 29.991,83.362 C32.297,82.993 34.992,83.386 36.508,85.346 C37.914,86.952 37.982,89.236 37.613,91.236 C39.065,91.236 40.608,91.031 41.965,91.651 C43.714,92.455 45.121,94.096 45.422,96.027 C45.719,97.315 45.422,98.653 45.166,99.918 C46.871,99.525 48.738,99.435 50.328,100.311 C51.934,101.16 53.136,102.75 53.478,104.526 C54.055,107.216 52.812,110.097 50.67,111.779 C48.67,113.345 46.089,114.239 43.508,114.102 C42.244,114.057 40.906,113.642 39.988,112.72 C39.087,111.802 38.422,110.537 38.512,109.221 C38.581,107.563 39.503,106.134 40.033,104.618 C38.375,105.006 36.74,105.7 34.992,105.559 C32.503,105.559 30.36,103.142 30.663,100.677 C30.845,99.343 31.557,98.123 31.791,96.812 C30.178,97.132 28.612,97.867 26.907,97.685 C24.972,97.503 23.479,95.798 23.063,93.976 C22.693,92.182 23.753,90.593 24.168,88.913 C22.578,89.145 21.057,89.949 19.422,89.766 C17.167,89.533 15.441,87.437 15.235,85.249 C15.048,82.879 16.039,80.577 17.423,78.737 C18.596,77.074 20.345,75.764 22.351,75.371" fill="#EBECEC"/>
  </g>
  <defs/>
</svg>
