<?xml version="1.0" encoding="UTF-8"?>
<!DOCTYPE svg PUBLIC "-//W3C//DTD SVG 1.1//EN" "http://www.w3.org/Graphics/SVG/1.1/DTD/svg11.dtd">
<svg version="1.1" xmlns="http://www.w3.org/2000/svg" xmlns:xlink="http://www.w3.org/1999/xlink" x="0px" y="0px" width="1200" height="460" viewBox="0, 0, 1200, 460">
  <g id="Background">
    <rect x="0" y="0" width="1200" height="460" fill="#000000" fill-opacity="0"/>
  </g>
  <g id="Layer 1">
    <text transform="matrix(1, 0, 0, 1, 190, 221.5)">
      <tspan x="-93.647" y="-162.5" font-family="Verdana-Bold" font-size="36" fill="#294270">Network:</tspan>
      <tspan x="-122.15" y="-118.5" font-family="Verdana-Bold" font-size="36" fill="#294270">dr101-mr99</tspan>
      <tspan x="-121.201" y="-74.5" font-family="Verdana-Bold" font-size="36" fill="#294270">mr99-out00</tspan>
      <tspan x="-127.538" y="-30.5" font-family="Verdana-Bold" font-size="36" fill="#294270">dr101-out00</tspan>
      <tspan x="-143.534" y="13.5" font-family="Verdana-Bold" font-size="36" fill="#294270">scout1-scout2</tspan>
      <tspan x="-143.534" y="57.5" font-family="Verdana-Bold" font-size="36" fill="#294270">scout3-scout1</tspan>
      <tspan x="-143.534" y="101.5" font-family="Verdana-Bold" font-size="36" fill="#294270">scout1-scout4</tspan>
      <tspan x="-141.416" y="145.5" font-family="Verdana-Bold" font-size="36" fill="#294270">scout4-sscout</tspan>
      <tspan x="-130.957" y="189.5" font-family="Verdana-Bold" font-size="36" fill="#294270">sscout-super</tspan>
    </text>
    <g>
      <path d="M914.346,60.5 L1006.654,60.5 C1014.301,60.5 1020.5,67.216 1020.5,75.5 L1020.5,75.5 C1020.5,83.784 1014.301,90.5 1006.654,90.5 L914.346,90.5 C906.699,90.5 900.5,83.784 900.5,75.5 L900.5,75.5 C900.5,67.216 906.699,60.5 914.346,60.5 z" fill-opacity="0" stroke="#294371" stroke-width="4"/>
      <text transform="matrix(1, 0, 0, 1, 960, 75)">
        <tspan x="-45.753" y="9" font-family="Verdana-Bold" font-size="24" fill="#294270">scout1</tspan>
      </text>
    </g>
    <g>
      <path d="M914.346,240.5 L1006.654,240.5 C1014.301,240.5 1020.5,247.216 1020.5,255.5 L1020.5,255.5 C1020.5,263.784 1014.301,270.5 1006.654,270.5 L914.346,270.5 C906.699,270.5 900.5,263.784 900.5,255.5 L900.5,255.5 C900.5,247.216 906.699,240.5 914.346,240.5 z" fill-opacity="0" stroke="#294371" stroke-width="4"/>
      <text transform="matrix(1, 0, 0, 1, 960, 255)">
        <tspan x="-45.753" y="9" font-family="Verdana-Bold" font-size="24" fill="#294270">scout4</tspan>
      </text>
    </g>
    <g>
      <path d="M1034.346,150.5 L1126.654,150.5 C1134.301,150.5 1140.5,157.216 1140.5,165.5 L1140.5,165.5 C1140.5,173.784 1134.301,180.5 1126.654,180.5 L1034.346,180.5 C1026.699,180.5 1020.5,173.784 1020.5,165.5 L1020.5,165.5 C1020.5,157.216 1026.699,150.5 1034.346,150.5 z" fill-opacity="0" stroke="#294371" stroke-width="4"/>
      <text transform="matrix(1, 0, 0, 1, 1080, 165)">
        <tspan x="-45.753" y="9" font-family="Verdana-Bold" font-size="24" fill="#294270">scout3</tspan>
      </text>
    </g>
    <g>
      <path d="M794.346,150.5 L886.654,150.5 C894.301,150.5 900.5,157.216 900.5,165.5 L900.5,165.5 C900.5,173.784 894.301,180.5 886.654,180.5 L794.346,180.5 C786.699,180.5 780.5,173.784 780.5,165.5 L780.5,165.5 C780.5,157.216 786.699,150.5 794.346,150.5 z" fill-opacity="0" stroke="#294371" stroke-width="4"/>
      <text transform="matrix(1, 0, 0, 1, 840, 165)">
        <tspan x="-45.753" y="9" font-family="Verdana-Bold" font-size="24" fill="#294270">scout2</tspan>
      </text>
    </g>
    <g>
      <path d="M850.447,144.532 L930.553,96.468" fill-opacity="0" stroke="#F0801A" stroke-width="4"/>
      <path d="M845.167,151.658 C842.595,151.015 841.031,148.409 841.674,145.837 C842.317,143.265 844.923,141.702 847.495,142.345 C850.067,142.988 851.631,145.594 850.988,148.166 C850.345,150.737 847.739,152.301 845.167,151.658" fill="#F0801A" fill-opacity="1" stroke="#F0801A" stroke-width="4" stroke-opacity="1"/>
      <path d="M935.833,89.342 C938.405,89.985 939.969,92.591 939.326,95.163 C938.683,97.735 936.077,99.298 933.505,98.655 C930.933,98.012 929.369,95.406 930.012,92.834 C930.655,90.263 933.261,88.699 935.833,89.342" fill="#F0801A" fill-opacity="1" stroke="#F0801A" stroke-width="4" stroke-opacity="1"/>
    </g>
    <g>
      <path d="M990.447,96.468 L1070.553,144.532" fill-opacity="0" stroke="#F0801A" stroke-width="4" stroke-miterlimit="1"/>
      <path d="M981.674,95.163 C981.031,92.591 982.595,89.985 985.167,89.342 C987.739,88.699 990.345,90.263 990.988,92.834 C991.631,95.406 990.067,98.012 987.495,98.655 C984.923,99.298 982.317,97.735 981.674,95.163" fill="#F0801A" fill-opacity="1" stroke="#F0801A" stroke-width="4" stroke-opacity="1"/>
      <path d="M1079.326,145.837 C1079.969,148.409 1078.405,151.015 1075.833,151.658 C1073.261,152.301 1070.655,150.737 1070.012,148.166 C1069.369,145.594 1070.933,142.988 1073.505,142.345 C1076.077,141.702 1078.683,143.265 1079.326,145.837" fill="#F0801A" fill-opacity="1" stroke="#F0801A" stroke-width="4" stroke-opacity="1"/>
    </g>
    <g>
      <path d="M960.5,102.1 L960.5,228.9" fill-opacity="0" stroke="#F0801A" stroke-width="4"/>
      <path d="M957.106,93.906 C958.98,92.031 962.02,92.031 963.894,93.906 C965.769,95.78 965.769,98.82 963.894,100.694 C962.02,102.569 958.98,102.569 957.106,100.694 C955.231,98.82 955.231,95.78 957.106,93.906" fill="#F0801A" fill-opacity="1" stroke="#F0801A" stroke-width="4" stroke-opacity="1"/>
      <path d="M963.894,237.094 C962.02,238.969 958.98,238.969 957.106,237.094 C955.231,235.22 955.231,232.18 957.106,230.306 C958.98,228.431 962.02,228.431 963.894,230.306 C965.769,232.18 965.769,235.22 963.894,237.094" fill="#F0801A" fill-opacity="1" stroke="#F0801A" stroke-width="4" stroke-opacity="1"/>
    </g>
    <g>
      <path d="M674.346,240.5 L766.654,240.5 C774.301,240.5 780.5,247.216 780.5,255.5 L780.5,255.5 C780.5,263.784 774.301,270.5 766.654,270.5 L674.346,270.5 C666.699,270.5 660.5,263.784 660.5,255.5 L660.5,255.5 C660.5,247.216 666.699,240.5 674.346,240.5 z" fill-opacity="0" stroke="#294371" stroke-width="4"/>
      <text transform="matrix(1, 0, 0, 1, 720, 255)">
        <tspan x="-43.553" y="9" font-family="Verdana-Bold" font-size="24" fill="#294270">sscout</tspan>
      </text>
    </g>
    <g>
      <path d="M888.9,260.5 L792.1,260.5" fill-opacity="0" stroke="#F0801A" stroke-width="4"/>
      <path d="M897.094,257.106 C898.969,258.98 898.969,262.02 897.094,263.894 C895.22,265.769 892.18,265.769 890.306,263.894 C888.431,262.02 888.431,258.98 890.306,257.106 C892.18,255.231 895.22,255.231 897.094,257.106" fill="#F0801A" fill-opacity="1" stroke="#F0801A" stroke-width="4" stroke-opacity="1"/>
      <path d="M783.906,263.894 C782.031,262.02 782.031,258.98 783.906,257.106 C785.78,255.231 788.82,255.231 790.694,257.106 C792.569,258.98 792.569,262.02 790.694,263.894 C788.82,265.769 785.78,265.769 783.906,263.894" fill="#F0801A" fill-opacity="1" stroke="#F0801A" stroke-width="4" stroke-opacity="1"/>
    </g>
    <g>
      <path d="M614.346,390.5 L706.654,390.5 C714.301,390.5 720.5,397.216 720.5,405.5 L720.5,405.5 C720.5,413.784 714.301,420.5 706.654,420.5 L614.346,420.5 C606.699,420.5 600.5,413.784 600.5,405.5 L600.5,405.5 C600.5,397.216 606.699,390.5 614.346,390.5 z" fill-opacity="0" stroke="#294371" stroke-width="4"/>
      <text transform="matrix(1, 0, 0, 1, 660, 405)">
        <tspan x="-39.316" y="9" font-family="Verdana-Bold" font-size="24" fill="#294270">out00</tspan>
      </text>
    </g>
    <g>
      <path d="M434.346,390.5 L526.654,390.5 C534.301,390.5 540.5,397.216 540.5,405.5 L540.5,405.5 C540.5,413.784 534.301,420.5 526.654,420.5 L434.346,420.5 C426.699,420.5 420.5,413.784 420.5,405.5 L420.5,405.5 C420.5,397.216 426.699,390.5 434.346,390.5 z" fill-opacity="0" stroke="#294371" stroke-width="4"/>
      <text transform="matrix(1, 0, 0, 1, 480, 405)">
        <tspan x="-35.725" y="9" font-family="Verdana-Bold" font-size="24" fill="#294270">mr99</tspan>
      </text>
    </g>
    <g>
      <path d="M524.346,300.5 L616.654,300.5 C624.301,300.5 630.5,307.216 630.5,315.5 L630.5,315.5 C630.5,323.784 624.301,330.5 616.654,330.5 L524.346,330.5 C516.699,330.5 510.5,323.784 510.5,315.5 L510.5,315.5 C510.5,307.216 516.699,300.5 524.346,300.5 z" fill-opacity="0" stroke="#294371" stroke-width="4"/>
      <text transform="matrix(1, 0, 0, 1, 570, 315)">
        <tspan x="-39.949" y="9" font-family="Verdana-Bold" font-size="24" fill="#294270">dr101</tspan>
      </text>
    </g>
    <g>
      <path d="M608.702,338.702 L652.298,382.298" fill-opacity="0" stroke="#F0801A" stroke-width="4"/>
      <path d="M600.508,335.308 C600.508,332.657 602.657,330.508 605.308,330.508 C607.959,330.508 610.108,332.657 610.108,335.308 C610.108,337.959 607.959,340.108 605.308,340.108 C602.657,340.108 600.508,337.959 600.508,335.308" fill="#F0801A" fill-opacity="1" stroke="#F0801A" stroke-width="4" stroke-opacity="1"/>
      <path d="M660.492,385.692 C660.492,388.343 658.343,390.492 655.692,390.492 C653.041,390.492 650.892,388.343 650.892,385.692 C650.892,383.041 653.041,380.892 655.692,380.892 C658.343,380.892 660.492,383.041 660.492,385.692" fill="#F0801A" fill-opacity="1" stroke="#F0801A" stroke-width="4" stroke-opacity="1"/>
    </g>
    <g>
      <path d="M488.702,382.298 L532.298,338.702" fill-opacity="0" stroke="#F0801A" stroke-width="4"/>
      <path d="M485.308,390.492 C482.657,390.492 480.508,388.343 480.508,385.692 C480.508,383.041 482.657,380.892 485.308,380.892 C487.959,380.892 490.108,383.041 490.108,385.692 C490.108,388.343 487.959,390.492 485.308,390.492" fill="#F0801A" fill-opacity="1" stroke="#F0801A" stroke-width="4" stroke-opacity="1"/>
      <path d="M535.692,330.508 C538.343,330.508 540.492,332.657 540.492,335.308 C540.492,337.959 538.343,340.108 535.692,340.108 C533.041,340.108 530.892,337.959 530.892,335.308 C530.892,332.657 533.041,330.508 535.692,330.508" fill="#F0801A" fill-opacity="1" stroke="#F0801A" stroke-width="4" stroke-opacity="1"/>
    </g>
    <g>
      <path d="M552.1,410.5 L588.9,410.5" fill-opacity="0" stroke="#F0801A" stroke-width="4"/>
      <path d="M543.906,413.894 C542.031,412.02 542.031,408.98 543.906,407.106 C545.78,405.231 548.82,405.231 550.694,407.106 C552.569,408.98 552.569,412.02 550.694,413.894 C548.82,415.769 545.78,415.769 543.906,413.894" fill="#F0801A" fill-opacity="1" stroke="#F0801A" stroke-width="4" stroke-opacity="1"/>
      <path d="M597.094,407.106 C598.969,408.98 598.969,412.02 597.094,413.894 C595.22,415.769 592.18,415.769 590.306,413.894 C588.431,412.02 588.431,408.98 590.306,407.106 C592.18,405.231 595.22,405.231 597.094,407.106" fill="#F0801A" fill-opacity="1" stroke="#F0801A" stroke-width="4" stroke-opacity="1"/>
    </g>
    <g>
      <path d="M554.346,120.5 L646.654,120.5 C654.301,120.5 660.5,127.216 660.5,135.5 L660.5,135.5 C660.5,143.784 654.301,150.5 646.654,150.5 L554.346,150.5 C546.699,150.5 540.5,143.784 540.5,135.5 L540.5,135.5 C540.5,127.216 546.699,120.5 554.346,120.5 z" fill-opacity="0" stroke="#294371" stroke-width="4"/>
      <text transform="matrix(1, 0, 0, 1, 600, 135)">
        <tspan x="-37.992" y="9" font-family="Verdana-Bold" font-size="24" fill="#294270">super</tspan>
      </text>
    </g>
    <g>
      <path d="M711.22,233.54 L609.78,157.46" fill-opacity="0" stroke="#F0801A" stroke-width="4"/>
      <path d="M719.812,235.741 C720.187,238.365 718.363,240.797 715.739,241.172 C713.115,241.547 710.683,239.723 710.308,237.099 C709.933,234.475 711.757,232.043 714.381,231.668 C717.005,231.293 719.437,233.117 719.812,235.741" fill="#F0801A" fill-opacity="1" stroke="#F0801A" stroke-width="4" stroke-opacity="1"/>
      <path d="M601.188,155.259 C600.813,152.634 602.637,150.203 605.261,149.828 C607.885,149.453 610.317,151.277 610.692,153.901 C611.067,156.525 609.243,158.957 606.619,159.332 C603.995,159.707 601.563,157.883 601.188,155.259" fill="#F0801A" fill-opacity="1" stroke="#F0801A" stroke-width="4" stroke-opacity="1"/>
    </g>
  </g>
  <defs/>
</svg>
